<?xml version="1.0" encoding="utf-8"?>
<!-- Generator: Adobe Illustrator 24.3.0, SVG Export Plug-In . SVG Version: 6.00 Build 0)  -->
<svg version="1.0" id="圖層_1" xmlns="http://www.w3.org/2000/svg" xmlns:xlink="http://www.w3.org/1999/xlink" x="0px" y="0px"
	 width="25px" height="25px" viewBox="0 0 25 25" style="enable-background:new 0 0 25 25;" xml:space="preserve">
<style type="text/css">
	.st0{fill:#50577C;}
</style>
<g>
	<path class="st0" d="M15.343,4.672c0.535,0.537,0.804,1.191,0.804,1.964v14.397c0,0.773-0.269,1.428-0.804,1.964
		c-0.537,0.536-1.191,0.805-1.965,0.805H3.965c-0.774,0-1.433-0.269-1.978-0.805c-0.545-0.536-0.817-1.19-0.817-1.964V6.636
		c0-0.773,0.272-1.428,0.817-1.964c0.544-0.536,1.204-0.804,1.978-0.804h9.413C14.151,3.868,14.806,4.136,15.343,4.672z
		 M14.802,9.009c0-0.386-0.141-0.716-0.422-0.989c-0.281-0.272-0.615-0.409-1.002-0.409H3.886c-0.387,0-0.716,0.136-0.989,0.409
		C2.624,8.293,2.488,8.623,2.488,9.009v12.156c0,0.387,0.136,0.717,0.409,0.988c0.272,0.272,0.602,0.409,0.989,0.409h9.492
		c0.387,0,0.721-0.137,1.002-0.409c0.281-0.271,0.422-0.602,0.422-0.988V9.009z M4.967,10.011h7.462v2.61H4.967V10.011z
		 M4.967,14.995h7.462v2.61H4.967V14.995z M20.84,1.363c0.773,0,1.428,0.273,1.964,0.817c0.536,0.545,0.805,1.204,0.805,1.978
		v14.397c0,0.756-0.269,1.406-0.805,1.951s-1.19,0.817-1.964,0.817h-3.428v-1.239h3.428c0.387,0,0.716-0.136,0.989-0.409
		c0.271-0.271,0.408-0.602,0.408-0.988V6.531c0-0.386-0.137-0.716-0.408-0.989c-0.273-0.272-0.603-0.409-0.989-0.409h-3.507
		c-0.123-0.738-0.475-1.354-1.055-1.846c-0.58-0.492-1.257-0.738-2.03-0.738H9.133c0.264-0.352,0.593-0.637,0.989-0.857
		c0.396-0.22,0.831-0.33,1.305-0.33H20.84z M17.412,7.533h2.479v2.61h-2.479V7.533z M17.412,12.49h2.479v2.611h-2.479V12.49z"/>
</g>
</svg>
